# xmcd CD database file
#
# Track frame offsets:
#	150
#	14625
#	26250
#	36375
#	47925
#	62325
#	76425
#	89325
#	102375
#	114150
#	126420
#	140175
#	153750
#	166050
#	180375
#	190800
#	206700
#	221625
#	237375
#	251775
#
# Disc length: 3612 seconds
#
# Revision: 2
# Processed by: cddbd v1.5.2PL0 Copyright (c) Steve Scherf et al.
# Submitted via: CDex 1.70beta3
#
DISCID=190e1a14
DTITLE=The Bluegrass Album Band - The Bluegrass Compact Disc
DYEAR=1986
DGENRE=Bluegrass
TTITLE0=Blue Ridge Cabin Home
TTITLE1=I Believe in You Darling
TTITLE2=A Hundred Years From Now
TTITLE3=On My Way Back to the Old Home
TTITLE4=Cora Is Gone
TTITLE5=The Old Home Town
TTITLE6=Take Me in The Lifeboat
TTITLE7=Sitting Alone in the Moonlight
TTITLE8=Head Over Heels
TTITLE9=Ocean of Diamonds
TTITLE10=I'll Never Shed Another Tear
TTITLE11=Unfaithful One
TTITLE12=Is It Too Late Now
TTITLE13=Chalk Up Another One
TTITLE14=One Tear
TTITLE15=Cheyenne
TTITLE16=Devil in Disguise
TTITLE17=Age
TTITLE18=Talk It Over With Him
TTITLE19=Model Church
EXTD=YEAR: 1986
EXTT0=
EXTT1=
EXTT2=
EXTT3=
EXTT4=
EXTT5=
EXTT6=
EXTT7=
EXTT8=
EXTT9=
EXTT10=
EXTT11=
EXTT12=
EXTT13=
EXTT14=
EXTT15=
EXTT16=
EXTT17=
EXTT18=
EXTT19=
PLAYORDER=
